<svg width="15" height="26" viewBox="0 0 15 26" fill="none" xmlns="http://www.w3.org/2000/svg">
<path d="M0.788039 8.96267L6.8052 6.28837C7.07011 6.17484 7.37286 6.17484 7.62515 6.28837L13.6423 8.96267C14.1721 9.20234 14.6641 8.559 14.2983 8.10487L7.99097 0.39736C7.56207 -0.132453 6.85566 -0.132453 6.42676 0.39736L0.119465 8.10487C-0.233744 8.559 0.258226 9.20234 0.788039 8.96267ZM0.788039 16.2779L6.81781 18.9522C7.08272 19.0657 7.38547 19.0657 7.63776 18.9522L13.6675 16.2779C14.1974 16.0382 14.6893 16.6815 14.3235 17.1357L8.0162 24.8432C7.5873 25.373 6.88089 25.373 6.45199 24.8432L0.144694 17.1357C-0.233744 16.6815 0.245611 16.0382 0.788039 16.2779ZM6.94396 9.45337L1.73413 12.052C1.26739 12.279 1.26739 12.9476 1.73413 13.1747L6.94396 15.7733C7.12056 15.8616 7.33501 15.8616 7.51162 15.7733L12.7214 13.1747C13.1882 12.9476 13.1882 12.279 12.7214 12.052L7.51162 9.45337C7.42335 9.40977 7.32623 9.38709 7.22779 9.38709C7.12934 9.38709 7.03222 9.40977 6.94396 9.45337Z" fill="black" fill-opacity="0.75"/>
</svg>
