<?xml version="1.0" encoding="UTF-8"?>
<svg id="_Слой_2" data-name="Слой 2" xmlns="http://www.w3.org/2000/svg" viewBox="0 0 347.64 377.45">
  <defs>
    <style>
      .cls-1 {
        fill: #CCDBBA;
      }
    </style>
  </defs>
  <g id="_Слой_1-2" data-name="Слой 1">
    <g>
      <path class="cls-1" d="M29.14,273.66c-.76-.46-1.52-1.01-2.28-1.47,.54-.75,1.07-1.51,1.61-2.26,.97,.77,1.87,1.65,2.92,2.3,3.17,1.95,6.4,3.8,9.61,5.7l1.08,.68,1.31,.7c.12,2.15,1.03,2.97,3.1,1.85,.45,.2,.92,.36,1.34,.61,36.84,21.26,73.7,42.51,110.52,63.82,8.69,5.03,17.22,5.19,25.94,.1,28.42-16.58,56.88-33.1,85.33-49.62,11.2-6.5,22.42-12.96,33.64-19.43,.56-.32,1.11-.63,1.67-.95,1.83-1.13,3.66-2.24,5.48-3.39,5.29-3.32,5.26-7.47-.14-10.68-6.07-3.6-12.18-7.12-18.28-10.66-1.19-.69-2.4-1.35-3.97-2.22,0,4.43,.22,8.42-.1,12.36-.15,1.81-1.36,3.54-2.09,5.31-.47,.39-.93,.78-1.4,1.17-2.15,1.25-4.3,2.51-6.45,3.76l-.03-3.09c1.19-.74,2.34-1.57,3.58-2.21,2.54-1.32,3.79-3.21,3.62-6.21-.18-3.15,.08-6.33,.09-9.49,.02-6.53,0-13.07,0-19.68-.63,.26-1.09,.45-1.54,.64-1.6-.23-2.95-.05-3.27,1.91-.62,.35-1.23,.7-1.85,1.06-.9-.51-1.8-1.02-2.7-1.54,2.13-1.3,4.43-2.39,6.34-3.96,1.34-1.1,2.16-2.84,3.21-4.3l-.03-.13c-1.3-1.33-2.4-2.96-3.93-3.92-5.1-3.2-10.35-6.16-15.54-9.22-.17-.42-.33-.84-.5-1.25-.21,.22-.43,.44-.64,.66-1.63-.95-3.26-1.9-4.88-2.85-.12-.42-.23-.84-.35-1.26-.26,.21-.51,.42-.77,.63-1.63-.95-3.26-1.91-4.89-2.86-.11-1.79-1.4-1.56-2.58-1.52-3.81-2.11-7.63-4.22-11.51-6.36-.57,.67-1.09,1.3-1.61,1.92-1.09,.63-2.19,1.26-3.28,1.89-.34-.18-.67-.35-1.01-.53,1.51-2.16,3.01-4.31,4.52-6.47,.85-.43,1.7-.86,2.74-1.39,.13,.61,.25,1.15,.36,1.69,1.29,.91,2.59,1.83,3.88,2.74,.52,.31,1.05,.63,1.57,.94,6.98,4.03,13.96,8.07,20.94,12.1,.76,.44,1.51,.88,2.27,1.33,1.95,1.1,3.9,2.2,5.85,3.31,.36,.24,.73,.47,1.09,.71,2.52,1.42,5.11,2.74,7.56,4.3,2.58,1.64,3.69,4.12,3.62,7.22-.13,5.5-.07,11-.25,16.5-.06,1.96,.43,3.17,2.29,4.11,2.95,1.5,5.73,3.34,8.58,5.04-.15,2.55,1.44,2,2.93,1.64,3.72,2.15,7.52,4.16,11.13,6.48,3.7,2.38,4.85,5.53,3.85,9.31-1.51-.08-1.37,.68-.84,1.64-1.47,1.41-2.79,3.06-4.46,4.17-3.18,2.11-6.56,3.91-9.85,5.84-.04,.03-.05,.11-.13,.28,3.41,2.02,6.89,3.95,10.24,6.1,4,2.57,5.18,6.27,2.92,9.46-1.02,1.44-2.53,2.67-4.07,3.57-22.51,13.18-45.06,26.29-67.61,39.4-19.61,11.39-39.22,22.78-58.85,34.13-8.49,4.91-17.13,4.91-25.57,.06-25.37-14.55-50.66-29.23-75.98-43.86-16.9-9.76-33.8-19.52-50.69-29.29-8.05-4.66-8.04-10.08,.02-14.75,1.93-1.12,3.9-2.18,5.86-3.26,1.23-.13,2.74,.1,2.43-1.95l-3.36-2.02c-.54-.32-1.09-.63-1.63-.95-.81-.47-1.62-.94-2.43-1.41-.32-.18-.65-.37-.97-.55-.86-.74-1.52-1.11-2.38-1.85"/>
      <path class="cls-1" d="M233.9,199.63c.34,.18,.67,.35,1.01,.53,.26,.54,.52,1.08,.78,1.62l-2.74,3.9c-.39-.26-.79-.51-1.18-.77-.09,.1-.18,.19-.27,.29,.28,.45,.57,.9,.85,1.36-.26,.38-.53,.75-.79,1.13-1.52,.03-1.74,.98-1.56,2.21-4.49,6.43-8.98,12.86-13.46,19.29-.31,.46-.61,.92-.92,1.38-1.4,1.35-2.59,3.05-4.23,3.98-12.63,7.16-25.37,14.14-38.01,21.28-1.8,1.02-3.17,1.11-5.01,.11-12.69-6.88-25.36-13.8-38.21-20.38-3.72-1.9-6.2-4.49-7.89-8.12-.43-.92-.93-1.8-1.4-2.7-.3-.52-.61-1.05-.91-1.57-2.54-4.44-5.09-8.89-7.63-13.33-.31-.56-.62-1.11-.93-1.67-2.57-4.32-5.13-8.65-7.72-13.01-3.44,1.93-6.75,3.78-10.05,5.63-.25-.9-.51-1.79-.76-2.69,.29-.17,.58-.33,.87-.5,1.01,.04,2.21,.39,2.16-1.31,2.04-1.25,4.08-2.49,6.24-3.81-1.06-1.96-2.07-3.83-3.08-5.7,1.04-.06,2.07-.13,3.11-.19,.92,1.66,1.85,3.32,2.77,4.98-.02,.66-.05,1.31-.07,1.97,.34-.12,.68-.24,1.03-.35,1.51,2.66,3.03,5.32,4.54,7.98l-.84,1.29c.58,.08,1.17,.15,1.75,.23,2.37,4.16,4.75,8.32,7.12,12.47-.54,1.68-.01,2.73,1.79,3.04,1.94,3.28,3.88,6.56,5.89,9.97,9.24-5.42,18.45-10.82,27.66-16.22,4.15-2.43,8.29-4.87,12.45-7.29,2.4-1.4,5.02-1.65,7.39-.3,12.3,7.04,24.52,14.22,36.77,21.34,.55,.31,1.09,.62,1.64,.93,.65,.33,1.29,.66,2.03,1.04,1.59-2.16,3.18-4.32,4.77-6.49,.54,0,1.07,0,1.66,0-.25-.63-.42-1.07-.6-1.51,.82-1.17,1.64-2.34,2.46-3.5,.5-.7,1-1.4,1.5-2.1,1.25-1.83,2.5-3.67,3.75-5.5l1.3-1.82c-.06-.12-.02-.21,.11-.27,.36-.05,.72-.1,1.07-.14-.13-.24-.25-.48-.38-.72,1.39-1.99,2.79-3.98,4.18-5.97Z"/>
      <path class="cls-1" d="M64.14,62.08c.57-15.36,6.54-29.12,16.03-41.47,6.48-8.44,14.17-15.45,24.45-19.06,6.97-2.44,13.61-2.16,20.04,1.9,4.91,3.1,10.02,5.92,15.09,8.77,7.19,4.04,10.53,10.51,11.17,18.38,1.55,18.97-5.93,34.88-17.46,49.22-6.19,7.69-13.66,13.87-23.21,17.07-6.75,2.26-13.21,1.82-19.39-2.04-4.86-3.03-9.82-5.93-14.86-8.65-7.51-4.04-10.57-10.7-11.54-18.69-.2-1.65-.19-3.33-.3-5.43Zm21.07,12.57c.41,2.11,.75,5.79,1.85,9.23,2.61,8.18,8.9,12.12,17.42,11.25,4.99-.51,9.45-2.55,13.55-5.31,12.68-8.52,21-20.43,26.34-34.54,3.43-9.07,5.27-18.41,2.96-28.08-1.64-6.86-5.36-12.23-12.81-13.27-3.41-.47-7.22-.02-10.51,1.06-10.09,3.31-17.52,10.35-23.78,18.64-8.82,11.68-14.31,24.66-15.02,41.02ZM130.67,10.42c-3.86-2.2-7.06-4.33-10.5-5.93-6.64-3.1-13.06-1.35-19.11,1.82-11.94,6.27-20.05,16.27-26.18,28-5.41,10.34-8.6,21.22-7.47,33.08,.92,9.72,8.14,18.01,17.74,20.11-3.11-7.26-3.45-14.76-2.12-22.32,2.48-14.09,8.7-26.46,18.02-37.23,7.73-8.94,16.78-15.89,29.62-17.53Z"/>
      <path class="cls-1" d="M202.9,71.07c.5-16.06,6.61-30.01,16.33-42.51,5.63-7.24,12.28-13.34,20.76-17.2,8.33-3.79,16.46-4.19,24.36,1.24,2.46,1.69,5.16,3.02,7.75,4.52,1.51,.87,2.97,1.85,4.54,2.61,9.34,4.55,12.92,12.57,13.21,22.35,.42,14.51-4.67,27.38-12.5,39.27-6.51,9.89-14.57,18.21-25.66,23.02-7.7,3.34-15.25,3.47-22.62-1.23-4.34-2.77-8.77-5.44-13.36-7.76-8.72-4.41-12.08-11.9-12.79-21.07-.08-1.08-.01-2.17-.01-3.25Zm84.16-26.81c-.21-2.18-.31-4.35-.65-6.48-1.69-10.7-8.88-16.91-18.57-15.51-3.69,.53-7.47,1.85-10.74,3.66-12.72,7.05-21.1,18.11-27.09,31.06-4.49,9.71-7.24,19.86-5.52,30.71,1.08,6.81,3.84,12.64,10.85,15.22,4.41,1.62,8.87,1.03,13.21-.51,7.56-2.69,13.72-7.46,19.01-13.33,11.48-12.74,18.51-27.46,19.49-44.81Zm-63.94,51.63c-.72-4.43-1.89-8.8-2.06-13.21-.35-8.78,1.77-17.23,5.47-25.12,8.72-18.63,20.43-34.19,42.32-38.87-2.81-1.63-5.56-3.15-8.23-4.79-2.86-1.75-5.91-2.51-9.26-2.38-6.4,.25-11.94,2.81-16.95,6.49-13.87,10.22-22.45,24.04-26.94,40.53-1.57,5.75-1.93,11.62-1.43,17.56,.91,10.83,8.3,16,17.08,19.78Zm.71,.39c-.06-.05-.12-.15-.17-.15-.06,0-.11,.1-.17,.15l.26,.16c.03-.05,.06-.11,.08-.16Z"/>
      <path class="cls-1" d="M194.29,179.57c-5.74,5.69-11.52,11.31-19.01,14.78-8.38,3.89-16.52,4.41-24.62-.92-4.58-3.01-9.42-5.62-14.22-8.27-6.88-3.8-10.1-9.94-11.03-17.4-1.92-15.49,3.29-29.17,11.3-41.97,6.42-10.26,14.54-18.86,25.77-23.97,8.06-3.66,15.99-3.99,23.71,1.2,2.52,1.69,5.38,2.87,8.09,4.28,2.05,1.36,4,2.88,6.16,4.04,5.94,3.19,9.48,8.25,10.58,14.66,.82,4.78,1.16,9.83,.59,14.62-1.6,13.44-7.28,25.3-15.41,36.04-.42,.55-.61,1.28-.91,1.92,0,0,.02-.01,.02-.01-.34,.34-.69,.68-1.03,1.02Zm-18.59,11.09c.37-.15,.76-.26,1.1-.46,12.71-7.72,21.2-19.01,27.02-32.43,4.16-9.6,6.34-19.59,4.59-30.14-1.77-10.66-9.38-16.38-19.95-14.48-8.85,1.6-15.79,6.61-21.52,13.4-.59,.39-1.3,.68-1.75,1.19-6.4,7.1-11.4,15.07-14.8,24.01-3.44,9.05-5.47,18.32-3.47,28.02,1.36,6.61,4.48,12.07,11.48,14.02,6.19,1.73,11.92,0,17.31-3.13Zm-30.13-3.66c-2.93-8.23-2.97-16.33-1.38-24.56,1.56-8.07,4.61-15.57,8.67-22.69,4.12-7.21,9.23-13.6,15.36-19.23,6.14-5.64,13.61-8.82,21.86-11.71-3.15-1.85-5.58-3.28-8.02-4.7-3.64-2.12-7.68-2.73-11.57-1.61-4.25,1.23-8.58,2.81-12.3,5.14-10.89,6.83-18.33,16.8-23.76,28.28-4.8,10.14-7.77,20.69-6,32.07,.8,5.17,2.69,9.88,7.11,12.98,3.18,2.24,6.67,4.03,10.02,6.02Z"/>
      <path class="cls-1" d="M241.53,193.45c-.12-.54-.23-1.07-.36-1.69-1.04,.53-1.89,.96-2.74,1.39,6.85-9.92,13.67-19.85,20.57-29.74,14.9-21.36,29.84-42.69,44.77-64.04,.38-.55,.67-1.25,1.19-1.58,.54-.34,1.54-.62,1.91-.35,.42,.31,.64,1.38,.43,1.92-.39,.98-1.16,1.81-1.78,2.69-21.06,30.15-42.11,60.31-63.18,90.46-.23,.34-.54,.62-.81,.94Z"/>
      <path class="cls-1" d="M102.18,186.58c-1.04,.07-2.07,.13-3.11,.19-7.22-12.52-14.46-25.03-21.65-37.56-9.26-16.14-18.49-32.3-27.73-48.45-.33-.57-.8-1.16-.85-1.76-.05-.55,.24-1.43,.66-1.65,.41-.22,1.23,.08,1.74,.37,.38,.22,.56,.8,.81,1.23,16.57,28.91,33.14,57.82,49.71,86.73,.16,.29,.29,.6,.43,.9Z"/>
      <path class="cls-1" d="M27.38,261.09c.96-.77,1.84-1.67,2.89-2.28,7.07-4.16,14.15-8.3,21.29-12.34,1.4-.79,1.98-1.62,1.95-3.27-.1-5.57,.05-11.14-.03-16.71-.06-3.78,1.43-6.56,4.74-8.38,2.39-1.31,4.76-2.65,7.14-3.98,.35,.83,.69,1.66,1.04,2.48-2.47,1.5-5,2.92-7.41,4.52-3.35,2.22-3.32,5.02,0,7.3,1.42,.98,2.93,1.84,4.39,2.75-.35,.84-.7,1.67-1.05,2.51-1.66-.98-3.31-1.96-4.97-2.95-.16-.69-.31-1.39-.47-2.08-.26,.05-.52,.11-.78,.16,.1,.63,.2,1.27,.3,1.9-.02,9.8,.04,19.59-.09,29.39-.03,2.59,.97,4.24,3.09,5.47,2.5,1.45,4.97,2.95,7.46,4.43-.69,.66-1.38,1.32-2.07,1.99-2.65-1.58-5.3-3.16-7.95-4.74-.44-.37-.88-.73-1.32-1.1-.7-1.77-1.87-3.51-2.01-5.32-.31-3.88-.1-7.8-.1-11.94-1.77,.91-3.14,1.62-4.51,2.33-.32,.19-.64,.38-.97,.57-.4,.28-.78,.6-1.2,.84-5.13,3-10.29,5.95-15.39,9-3.73,2.23-4.52,4.39-3.1,7.94-.92,.27-1.84,.54-2.76,.81-1.77-3.25-1.16-6.13,1.31-8.74,.19,.01,.39,.02,.58,.03,.07,.04,.14,.08,.21,.11-.07-.04-.14-.07-.21-.11,0-.2,0-.39,0-.59Z"/>
      <path class="cls-1" d="M2.3,103.26c-.05-4.85,3.58-8.62,8.36-8.68,4.91-.07,8.77,3.69,8.78,8.55,0,4.73-3.76,8.53-8.52,8.57-4.8,.05-8.58-3.66-8.62-8.44Z"/>
      <path class="cls-1" d="M338.33,16.1c.5,.32,1.12,.59,1.57,1.03,2.32,2.26,4.58,4.59,6.89,6.86,1.21,1.2,1.07,2.29-.08,3.43-2.25,2.22-4.49,4.45-6.7,6.7-1.06,1.08-2.08,1.24-3.2,.11-2.34-2.36-4.78-4.63-6.99-7.11-.51-.57-.69-2.24-.26-2.72,2.37-2.66,4.97-5.13,7.52-7.63,.28-.28,.72-.39,1.25-.67Z"/>
      <path class="cls-1" d="M55.34,167.36c2.18,2.49,4.43,5.04,6.6,7.65,.11,.13-.35,.89-.68,1.22-1.68,1.74-3.32,3.53-5.17,5.07-.49,.41-1.95,.37-2.46-.06-1.84-1.55-3.55-3.28-5.13-5.11-.43-.5-.59-1.9-.22-2.32,1.75-2.01,3.71-3.82,5.61-5.69,.22-.22,.57-.31,1.44-.77Z"/>
      <path class="cls-1" d="M6.06,20.64C2.76,20.63,.02,17.92,0,14.65c-.02-3.34,2.85-6.14,6.25-6.1,3.3,.04,6.04,2.78,6.06,6.03,.02,3.37-2.77,6.08-6.24,6.06Z"/>
      <path class="cls-1" d="M339.52,98.1c2.78,.06,5.02,2.41,4.94,5.18-.07,2.71-2.53,5-5.25,4.87-2.67-.12-4.84-2.4-4.82-5.06,.02-2.79,2.35-5.05,5.12-4.99Z"/>
      <path class="cls-1" d="M297.81,181.98c-.82,.88-1.44,1.62-2.14,2.29-4.25,4.14-2.93,4.04-7.06,.06-2.35-2.27-2.32-2.31-.01-4.61q3.54-3.53,7.03-.03c.68,.69,1.34,1.4,2.18,2.28Z"/>
      <path class="cls-1" d="M66.39,216.63c-.35-.83-.69-1.66-1.04-2.48,4.33-2.53,8.67-5.07,13-7.6,.4,.83,.8,1.65,1.2,2.48-4.39,2.53-8.77,5.07-13.16,7.6Z"/>
      <path class="cls-1" d="M79.55,209.02c-.4-.83-.8-1.65-1.2-2.48,4-2.32,8.01-4.65,12.01-6.97,.34,.85,.68,1.69,1.02,2.54-2.64,1.53-5.28,3.05-7.92,4.58-.53,.31-1.05,.62-1.58,.93-.78,.47-1.55,.93-2.33,1.4Z"/>
      <path class="cls-1" d="M91.38,202.11c-.34-.85-.68-1.69-1.02-2.54,.84-.49,1.67-.99,2.51-1.48,.25,.9,.51,1.79,.76,2.69-.75,.44-1.5,.88-2.25,1.33Z"/>
      <path class="cls-1" d="M25.5,270.39c.92-.27,1.84-.54,2.76-.81q.07,.19,.21,.35c-.54,.75-1.07,1.51-1.61,2.26-.45-.6-.91-1.2-1.36-1.8Z"/>
      <path class="cls-1" d="M301.85,253.38c-1.49,.36-3.08,.91-2.93-1.64,.98,.55,1.95,1.1,2.93,1.64Z"/>
      <path class="cls-1" d="M120.26,218.18c-1.8-.3-2.32-1.36-1.79-3.04,.6,1.01,1.19,2.02,1.79,3.04Z"/>
      <path class="cls-1" d="M40.25,280.71c.32,2.05-1.19,1.83-2.43,1.95,.81-.65,1.62-1.3,2.43-1.95Z"/>
      <path class="cls-1" d="M111.35,202.67c-.58-.08-1.17-.15-1.75-.23l.84-1.29c.3,.51,.61,1.01,.91,1.52Z"/>
      <path class="cls-1" d="M105.9,193.17c-.34,.12-.68,.24-1.03,.35,.02-.66,.05-1.31,.07-1.97,.32,.54,.63,1.08,.95,1.62Z"/>
      <path class="cls-1" d="M270.19,210.57c-.76-.44-1.51-.88-2.27-1.33,.76,.44,1.51,.88,2.27,1.33Z"/>
      <path class="cls-1" d="M95.91,196.29c.04,1.7-1.16,1.35-2.16,1.31,.72-.44,1.44-.87,2.16-1.31Z"/>
      <path class="cls-1" d="M223.87,214.05c-.5,.7-1,1.4-1.5,2.1,.5-.7,1-1.4,1.5-2.1Z"/>
      <path class="cls-1" d="M228.92,206.73l-1.3,1.82,1.3-1.82Z"/>
      <path class="cls-1" d="M315.99,270.82c-.53-.96-.67-1.72,.84-1.64-.28,.55-.56,1.09-.84,1.64Z"/>
      <path class="cls-1" d="M219.91,219.65c.17,.44,.35,.88,.6,1.51h-1.66c.35-.5,.71-1.01,1.06-1.51Z"/>
      <path class="cls-1" d="M212.05,226.61c-.55-.31-1.09-.62-1.64-.93,.55,.31,1.09,.62,1.64,.93Z"/>
      <path class="cls-1" d="M246.98,197.14c-.52-.31-1.05-.63-1.57-.94,.52,.31,1.05,.63,1.57,.94Z"/>
      <path class="cls-1" d="M35.26,277.74c.54,.32,1.09,.63,1.63,.95-.54-.32-1.09-.63-1.63-.95Z"/>
      <path class="cls-1" d="M229.72,205.6c.13,.24,.25,.48,.38,.72-.36,.05-.72,.1-1.07,.14,.23-.29,.47-.58,.7-.86Z"/>
      <path class="cls-1" d="M31.86,275.77c.32,.18,.65,.37,.97,.55-.32-.18-.65-.37-.97-.55Z"/>
      <path class="cls-1" d="M277.12,214.58c-.36-.24-.73-.47-1.09-.71,.36,.24,.73,.47,1.09,.71Z"/>
      <path class="cls-1" d="M194.29,179.57c.34-.34,.69-.68,1.03-1.02-.34,.34-.69,.68-1.03,1.02Z"/>
      <path class="cls-1" d="M27.39,261.68c-.19-.01-.39-.02-.58-.03,.19-.18,.38-.37,.57-.55,0,.19,0,.39,0,.59,0,0,0,0,0,0Z"/>
      <path class="cls-1" d="M29.28,273.66s-.14-.09-.14-.09"/>
      <path class="cls-1" d="M278.57,234.23c-9.29,5.48-18.56,10.99-27.88,16.42-22.24,12.96-44.57,25.79-66.74,38.88-8.5,5.01-16.58,5.13-25.12,.16-31.59-18.38-63.26-36.61-94.89-54.9-.56-.33-1.08-.73-1.62-1.09,.35-.84,.7-1.67,1.05-2.51,9.51,5.44,19.03,10.85,28.53,16.32,23.32,13.44,46.62,26.93,69.96,40.34,6.18,3.55,12.56,3.61,18.73,.04,31.27-18.11,62.5-36.29,93.75-54.44,.49-.28,1.01-.5,1.52-.75,.9,.51,1.8,1.02,2.7,1.54Z"/>
      <path class="cls-1" d="M277.96,271.31c-10.45,6.13-20.88,12.29-31.35,18.38-21.11,12.29-42.26,24.5-63.33,36.86-8.06,4.72-15.93,4.86-24.03,.17-31.12-18.04-62.27-36.02-93.41-54.03-.36-.21-.69-.46-1.03-.69,.69-.66,1.38-1.32,2.07-1.99,9.8,5.6,19.63,11.18,29.41,16.82,21.88,12.62,43.73,25.32,65.64,37.89,6.1,3.5,12.45,3.44,18.53-.08,31.42-18.19,62.8-36.46,94.2-54.69,1.07-.62,2.19-1.16,3.28-1.74l.03,3.09Z"/>
      <path class="cls-1" d="M238.19,198.27c-.83,1.17-1.66,2.34-2.5,3.51-.26-.54-.52-1.08-.78-1.62,1.09-.63,2.19-1.26,3.28-1.89Z"/>
      <path class="cls-1" d="M43.38,279.3c1.03,.62,2.07,1.23,3.1,1.85-2.07,1.12-2.98,.31-3.1-1.85Z"/>
      <path class="cls-1" d="M283.7,231.27c-1.09,.64-2.18,1.27-3.27,1.91,.32-1.96,1.68-2.14,3.27-1.91Z"/>
      <path class="cls-1" d="M253.9,204.22l-2.58-1.52c1.18-.04,2.47-.27,2.58,1.52Z"/>
      <path class="cls-1" d="M259.9,207.71c-.37-.21-.75-.42-1.12-.63,.26-.21,.51-.42,.77-.63,.12,.42,.23,.84,.35,1.26Z"/>
      <path class="cls-1" d="M265.92,211.16c-.38-.2-.76-.4-1.14-.6,.21-.22,.43-.44,.64-.66,.17,.42,.33,.84,.5,1.25Z"/>
      <path class="cls-1" d="M285.81,266.38c-.47,.39-.93,.78-1.4,1.17,.47-.39,.93-.78,1.4-1.17Z"/>
      <path class="cls-1" d="M303.25,276.61c.56-.32,1.11-.63,1.67-.95-.56,.32-1.11,.63-1.67,.95Z"/>
      <path class="cls-1" d="M40.99,277.92l1.08,.68-1.08-.68Z"/>
      <path class="cls-1" d="M285.42,224.44l-.03-.13,.03,.13Z"/>
      <path class="cls-1" d="M231.57,207.68c-.52,.74-1.04,1.47-1.56,2.21-.18-1.23,.04-2.18,1.56-2.21Z"/>
      <path class="cls-1" d="M232.96,205.68c-.2,.29-.4,.58-.6,.87-.28-.45-.57-.9-.85-1.36,.09-.1,.18-.19,.27-.29,.39,.26,.79,.51,1.18,.77Z"/>
      <path class="cls-1" d="M120.88,224.73c-.3-.52-.61-1.05-.91-1.57,.3,.52,.61,1.05,.91,1.57Z"/>
      <path class="cls-1" d="M112.33,209.83c-.31-.56-.62-1.11-.93-1.67,.31,.56,.62,1.11,.93,1.67Z"/>
      <path class="cls-1" d="M216.54,229.18c-.31,.46-.61,.92-.92,1.38,.31-.46,.61-.92,.92-1.38Z"/>
      <path class="cls-1" d="M223.83,96.29c-.03,.05-.06,.11-.08,.16-.09-.05-.17-.11-.26-.16,.06-.06,.11-.15,.17-.15,.06,0,.11,.1,.17,.15Z"/>
      <path class="cls-1" d="M57.36,230.76l-.94-.02c-.1-.63-.2-1.27-.3-1.9,.26-.05,.52-.11,.78-.16,.16,.69,.31,1.39,.47,2.08Z"/>
      <path class="cls-1" d="M56.86,267.27c-.44-.37-.88-.73-1.32-1.1,.44,.37,.88,.73,1.32,1.1Z"/>
      <path class="cls-1" d="M48.91,251.23c-.32,.19-.64,.38-.97,.57,.32-.19,.64-.38,.97-.57Z"/>
      <path class="cls-1" d="M27.39,261.68c.07,.04,.14,.07,.21,.11-.07-.04-.14-.08-.21-.11,0,0,0,0,0,0Z"/>
      <path class="cls-1" d="M83.46,206.69c-.53,.31-1.05,.62-1.58,.93,.53-.31,1.05-.62,1.58-.93Z"/>
      <path class="cls-1" d="M68.17,253.71c.68,.35,1.21,.59,1.71,.88,16.4,9.42,32.8,18.84,49.16,28.34,.76,.44,1.06,1.68,1.57,2.55-1.01,0-2.23,.38-2.99-.06-16.37-9.32-32.68-18.72-49-28.12-.5-.29-1.12-.54-1.41-.98-.28-.42-.4-1.15-.22-1.6,.17-.44,.8-.7,1.19-1Z"/>
      <path class="cls-1" d="M108.42,48.76c-1.41,.74-2.34,1.24-3.34,1.77-.69-2.15-.14-3.58,1.96-4.33,.38-.14,.7-.48,1.08-.61,2.42-.82,3.26-2.49,2.82-4.95-.38-2.19,.41-3.65,3.02-4.09v5.09c2.51,.01,2.38-1.52,2.37-3.06-.03-3.89,0-3.89,2.94-5.24,.04,.93,.1,1.78,.12,2.64,.02,.88,0,1.76,0,2.97,1.4-.73,2.45-1.36,3.56-1.84,2.68-1.18,4.95,.11,4.56,3.03-.37,2.76-1.69,5.39-2.58,8.04,3.64,.98,4.63,2.67,3.6,6.99-.99,4.18-3.26,7.47-7.14,9.38-1.62,.79-2.23,1.79-1.96,3.46,.36,2.26-.3,3.88-2.95,4.42v-4.6c-2.15,.18-2.39,1.44-2.16,3,.36,2.46-.36,4.17-3.27,4.58v-4.74c-2.17,1.19-4.03,2.22-6.1,3.36,.2-2.18,0-4.22,2.42-5.23,.5-.21,1.01-1.1,1.01-1.68,.07-5.97,.05-11.94,.05-18.36Zm4.74,17.28c2.39-1.42,4.6-2.33,6.25-3.85,1.31-1.22,2.12-3.11,2.77-4.85,.25-.68-.3-2.03-.93-2.56-.49-.41-1.76-.25-2.49,.08-1.58,.72-3.06,1.67-4.53,2.61-.44,.28-1,.8-1.02,1.23-.1,2.29-.05,4.58-.05,7.33Zm.2-13.16c3.34-1.63,6.58-2.96,7.3-6.78,.19-1.02-.25-2.53-.97-3.25-.95-.96-6.23,2.08-6.3,3.57-.1,2.05-.03,4.11-.03,6.46Z"/>
      <path class="cls-1" d="M263.15,56.84c3.2,.26,4.37,1.37,4.27,4.52-.16,5.04-2.51,8.93-6.87,11.4-1.81,1.03-2.86,2.14-2.43,4.26,.49,2.47-.96,3.38-3.13,4v-4.61c-2.04,.14-2.29,1.41-2.1,2.92,.28,2.28,.01,4.21-3.01,4.53v-4.77c-2.31,1.27-4.2,2.32-6.13,3.37-.08-3.16,.13-3.47,2.41-5.23,.49-.37,.91-1.17,.92-1.78,.07-5.91,.04-11.82,.04-18.09-1.35,.64-2.41,1.14-3.48,1.64-.74-2.26,.19-3.63,2.15-4.35,3.04-1.11,4.52-3.03,3.83-6.39-.46-2.26,1.34-2.64,3.15-3.45v5.35c2.58-.09,2.17-1.8,2.17-3.25q0-3.72,2.96-4.99v5.67c1.42-.78,2.33-1.52,3.38-1.8,1.12-.3,2.77-.68,3.43-.12,.91,.76,1.68,2.48,1.48,3.6-.36,2.05-1.46,3.98-2.31,5.93-.22,.51-.63,.94-.96,1.41-.12,.11-.25,.23-.37,.34,.2-.04,.41-.08,.61-.11Zm-11.29,17.64c2.31-1.36,4.47-2.2,6.03-3.67,1.35-1.27,2.19-3.2,2.88-4.98,.26-.67-.29-2.03-.91-2.54-.48-.4-1.73-.17-2.49,.13-3.85,1.51-6.72,3.72-5.53,8.55,.15,.62,.02,1.31,.02,2.51Zm.1-12.76c2.18-1.46,4.16-2.41,5.59-3.87,1-1.02,1.61-2.72,1.8-4.19,.3-2.25-1.04-3.04-3.06-2.04-1.11,.55-2.23,1.13-3.23,1.87-.51,.38-1.02,1.1-1.06,1.7-.13,1.96-.05,3.93-.05,6.55Z"/>
      <path class="cls-1" d="M165.93,172.66c-.13-2.02,.15-3.8,2.35-4.73,.48-.2,1.01-.99,1.02-1.51,.07-6.05,.05-12.1,.05-18.54-1.4,.66-2.4,1.13-3.48,1.64-.66-1.86-.32-3.14,1.51-3.88,.46-.18,.83-.58,1.3-.74,2.65-.94,3.71-2.75,3.2-5.53-.39-2.13,.69-3.23,2.96-3.67v5.22c2.63-.24,2.3-2.03,2.19-3.56-.15-2.23-.02-4.2,3.06-4.65,.09,1.69,.18,3.37,.29,5.31,1.15-.6,2.07-1.12,3.02-1.59,2.98-1.45,5.41-.02,4.9,3.25-.35,2.27-1.72,4.39-2.69,6.55-.19,.42-.61,.72-1.01,1.18,4.14,.34,5.23,1.55,4.86,5.56-.43,4.64-2.78,8.2-6.83,10.4-1.81,.99-2.47,2.08-2.35,4.09,.16,2.8,.04,2.8-2.81,3.92-.17-1.4-.33-2.77-.5-4.21-2.47,.13-2.12,1.86-1.98,3.23,.24,2.27-.57,3.63-3.09,4.13v-4.63c-2.16,.98-4.08,1.85-6,2.72l.04,.03Zm7.99-7.42c2.46-1.49,4.74-2.45,6.43-4.04,1.27-1.2,2.2-3.12,2.53-4.87,.49-2.53-1.15-3.46-3.49-2.32q-5.49,2.68-5.47,8.88c0,.58,0,1.15,0,2.34Zm.12-12.95c1.87-1.1,3.58-1.66,4.62-2.83,1.3-1.46,2.21-3.36,2.92-5.21,.23-.59-.52-1.98-1.19-2.39-1.31-.8-6.27,2.39-6.33,3.96-.07,1.97-.02,3.95-.02,6.46Z"/>
      <polygon class="cls-1" points="165.89 172.63 165.81 172.78 165.93 172.66 165.89 172.63"/>
    </g>
  </g>
</svg>