<?xml version="1.0" encoding="UTF-8"?>
<svg id="_Слой_2" data-name="Слой 2" xmlns="http://www.w3.org/2000/svg" viewBox="0 0 280.91 336.63">
  <defs>
    <style>
      .cls-1 {
        fill: #CCDBBA;
      }

      .cls-2 {
        fill: #fff;
      }

      .cls-2, .cls-3, .cls-4, .cls-5, .cls-6 {
        stroke: #CCDBBA;
        stroke-miterlimit: 10;
        stroke-width: 4px;
      }

      .cls-3 {
        stroke-dasharray: 0 0 27.33 27.33;
      }

      .cls-3, .cls-4, .cls-5, .cls-6 {
        fill: none;
      }

      .cls-3, .cls-4, .cls-6 {
        stroke-linecap: round;
      }

      .cls-6 {
        stroke-dasharray: 0 0 23.96 23.96;
      }
    </style>
  </defs>
  <g id="_Слой_1-2" data-name="Слой 1">
    <g>
      <g>
        <line class="cls-4" x1="248.09" y1="96.06" x2="222.04" y2="100.95"/>
        <line class="cls-3" x1="195.19" y1="106" x2="154.9" y2="113.57"/>
        <line class="cls-4" x1="141.48" y1="116.09" x2="115.43" y2="120.99"/>
      </g>
      <path class="cls-5" d="M2,142.8c.77-12.51,6.78-21.79,18.25-24.07l207.23-43.17c11-2.29,18.24,4.77,20.53,15.77l.55,30.26"/>
      <g>
        <line class="cls-2" x1="53.52" y1="73.51" x2="72.21" y2="79.03"/>
        <g>
          <path class="cls-2" d="M113.56,50.94c-5.21,20.08-23.72,32.66-41.35,28.09-2.21-.57-4.31-1.39-6.27-2.43-13.65-7.16-20.78-24.65-16.22-42.21,4.54-17.56,19.26-29.37,34.67-29.02,2.22,.05,4.45,.36,6.68,.93,17.63,4.57,27.7,24.55,22.49,44.64Z"/>
          <path class="cls-2" d="M65.94,76.6c-2.22-.05-4.46-.36-6.67-.93-17.63-4.57-27.71-24.56-22.5-44.64C41.98,10.95,60.49-1.63,78.12,2.94c2.21,.57,4.31,1.39,6.27,2.43-15.41-.35-30.13,11.46-34.67,29.02-4.56,17.56,2.57,35.05,16.22,42.21Z"/>
          <line class="cls-2" x1="72.35" y1="2" x2="91.07" y2="6.3"/>
          <path class="cls-1" d="M69.45,63.1c-.15-2.18,.18-4.09,2.72-5.1,.56-.22,1.17-1.07,1.18-1.63,.08-6.52,.05-13.05,.05-20-1.62,.71-2.78,1.22-4.03,1.77-.77-2-.37-3.39,1.75-4.18,.53-.2,.97-.62,1.5-.8,3.07-1.02,4.3-2.96,3.71-5.97-.46-2.3,.8-3.48,3.43-3.95,0,1.93,0,3.76,0,5.63,3.05-.26,2.66-2.19,2.54-3.84-.17-2.41-.02-4.53,3.55-5.02,.11,1.82,.21,3.64,.33,5.73,1.33-.65,2.4-1.21,3.5-1.71,3.45-1.57,6.27-.03,5.68,3.5-.41,2.45-2,4.73-3.12,7.07-.22,.45-.71,.78-1.17,1.27,4.8,.37,6.06,1.67,5.63,5.99-.5,5-3.23,8.84-7.92,11.22-2.1,1.07-2.86,2.25-2.72,4.41,.19,3.02,.04,3.03-3.26,4.23-.19-1.51-.38-2.99-.58-4.54-2.86,.14-2.46,2.01-2.3,3.49,.27,2.45-.66,3.92-3.58,4.46,0-1.69,0-3.26,0-4.99-2.51,1.06-4.73,2-6.95,2.94l.04,.03Zm9.27-8c2.85-1.61,5.49-2.64,7.45-4.35,1.47-1.29,2.55-3.37,2.94-5.25,.57-2.73-1.33-3.74-4.05-2.5q-6.37,2.9-6.34,9.58c0,.62,0,1.24,0,2.53Zm.14-13.97c2.16-1.18,4.15-1.79,5.35-3.05,1.5-1.58,2.56-3.62,3.38-5.62,.26-.63-.6-2.13-1.38-2.58-1.52-.87-7.27,2.58-7.34,4.27-.08,2.13-.02,4.26-.02,6.97Z"/>
        </g>
      </g>
      <g>
        <line class="cls-2" x1="99.45" y1="94.18" x2="118.14" y2="99.7"/>
        <g>
          <path class="cls-2" d="M159.49,71.61c-5.21,20.08-23.72,32.66-41.35,28.09-2.21-.57-4.31-1.39-6.27-2.43-13.65-7.16-20.78-24.65-16.22-42.21,4.54-17.56,19.26-29.37,34.67-29.02,2.22,.05,4.45,.36,6.68,.93,17.63,4.57,27.7,24.55,22.49,44.64Z"/>
          <path class="cls-2" d="M111.87,97.27c-2.22-.05-4.46-.36-6.67-.93-17.63-4.57-27.71-24.56-22.5-44.64,5.21-20.08,23.72-32.66,41.35-28.09,2.21,.57,4.31,1.39,6.27,2.43-15.41-.35-30.13,11.46-34.67,29.02-4.56,17.56,2.57,35.05,16.22,42.21Z"/>
          <line class="cls-2" x1="118.27" y1="22.67" x2="137" y2="26.97"/>
          <path class="cls-1" d="M115.38,83.77c-.15-2.18,.18-4.09,2.72-5.1,.56-.22,1.17-1.07,1.18-1.63,.08-6.52,.05-13.05,.05-20-1.62,.71-2.78,1.22-4.03,1.77-.77-2-.37-3.39,1.75-4.18,.53-.2,.97-.62,1.5-.8,3.07-1.02,4.3-2.96,3.71-5.97-.46-2.3,.8-3.48,3.43-3.95,0,1.93,0,3.76,0,5.63,3.05-.26,2.66-2.19,2.54-3.84-.17-2.41-.02-4.53,3.55-5.02,.11,1.82,.21,3.64,.33,5.73,1.33-.65,2.4-1.21,3.5-1.71,3.45-1.57,6.27-.03,5.68,3.5-.41,2.45-2,4.73-3.12,7.07-.22,.45-.71,.78-1.17,1.27,4.8,.37,6.06,1.67,5.63,5.99-.5,5-3.23,8.84-7.92,11.22-2.1,1.07-2.86,2.25-2.72,4.41,.19,3.02,.04,3.03-3.26,4.23-.19-1.51-.38-2.99-.58-4.54-2.86,.14-2.46,2.01-2.3,3.49,.27,2.45-.66,3.92-3.58,4.46,0-1.69,0-3.26,0-4.99-2.51,1.06-4.73,2-6.95,2.94l.04,.03Zm9.27-8c2.85-1.61,5.49-2.64,7.45-4.35,1.47-1.29,2.55-3.37,2.94-5.25,.57-2.73-1.33-3.74-4.05-2.5q-6.37,2.9-6.34,9.58c0,.62,0,1.24,0,2.53Zm.14-13.97c2.16-1.18,4.15-1.79,5.35-3.05,1.5-1.58,2.56-3.62,3.38-5.62,.26-.63-.6-2.13-1.38-2.58-1.52-.87-7.27,2.58-7.34,4.27-.08,2.13-.02,4.26-.02,6.97Z"/>
        </g>
      </g>
      <path class="cls-1" d="M264.38,336.63H23c-5.48,0-9.95-4.39-10.05-9.87l-.33-17.76H274.11l.32,17.38c.1,5.63-4.43,10.24-10.05,10.24Z"/>
      <g>
        <line class="cls-2" x1="151.05" y1="127.76" x2="169.74" y2="133.28"/>
        <g>
          <path class="cls-2" d="M211.09,105.19c-5.21,20.08-23.72,32.66-41.35,28.09-2.21-.57-4.31-1.39-6.27-2.43-13.65-7.16-20.78-24.65-16.22-42.21,4.54-17.56,19.26-29.37,34.67-29.02,2.22,.05,4.45,.36,6.68,.93,17.63,4.57,27.7,24.55,22.49,44.64Z"/>
          <path class="cls-2" d="M163.47,130.85c-2.22-.05-4.46-.36-6.67-.93-17.63-4.57-27.71-24.56-22.5-44.64,5.21-20.08,23.72-32.66,41.35-28.09,2.21,.57,4.31,1.39,6.27,2.43-15.41-.35-30.13,11.46-34.67,29.02-4.56,17.56,2.57,35.05,16.22,42.21Z"/>
          <line class="cls-2" x1="169.87" y1="56.25" x2="188.6" y2="60.55"/>
          <path class="cls-1" d="M166.97,117.35c-.15-2.18,.18-4.09,2.72-5.1,.56-.22,1.17-1.07,1.18-1.63,.08-6.52,.05-13.05,.05-20-1.62,.71-2.78,1.22-4.03,1.77-.77-2-.37-3.39,1.75-4.18,.53-.2,.97-.62,1.5-.8,3.07-1.02,4.3-2.96,3.71-5.97-.46-2.3,.8-3.48,3.43-3.95,0,1.93,0,3.76,0,5.63,3.05-.26,2.66-2.19,2.54-3.84-.17-2.41-.02-4.53,3.55-5.02,.11,1.82,.21,3.64,.33,5.73,1.33-.65,2.4-1.21,3.5-1.71,3.45-1.57,6.27-.03,5.68,3.5-.41,2.45-2,4.73-3.12,7.07-.22,.45-.71,.78-1.17,1.27,4.8,.37,6.06,1.67,5.63,5.99-.5,5-3.23,8.84-7.92,11.22-2.1,1.07-2.86,2.25-2.72,4.41,.19,3.02,.04,3.03-3.26,4.23-.19-1.51-.38-2.99-.58-4.54-2.86,.14-2.46,2.01-2.3,3.49,.27,2.45-.66,3.92-3.58,4.46,0-1.69,0-3.26,0-4.99-2.51,1.06-4.73,2-6.95,2.94l.04,.03Zm9.27-8c2.85-1.61,5.49-2.64,7.45-4.35,1.47-1.29,2.55-3.37,2.94-5.25,.57-2.73-1.33-3.74-4.05-2.5q-6.37,2.9-6.34,9.58c0,.62,0,1.24,0,2.53Zm.14-13.97c2.16-1.18,4.15-1.79,5.35-3.05,1.5-1.58,2.56-3.62,3.38-5.62,.26-.63-.6-2.13-1.38-2.58-1.52-.87-7.27,2.58-7.34,4.27-.08,2.13-.02,4.26-.02,6.97Z"/>
        </g>
      </g>
      <rect class="cls-2" x="2" y="120.99" width="276.91" height="195.7" rx="19.63" ry="19.63"/>
      <circle class="cls-5" cx="249.9" cy="218.84" r="13.88"/>
      <path class="cls-5" d="M276.52,131.77l-37.74,13.15c-9.73,3.74-16.14,13.08-16.14,23.5v100.38c0,10.31,6.29,19.58,15.87,23.39l38.02,13.71"/>
      <path class="cls-4" d="M156.85,196.18s-24.27-12.53-33.92,4.96c-9.65,17.48,21.92,21.92,21.92,21.92,0,0,19.26,3.95,12,20.88-5.48,12.79-35.76,0-35.76,0"/>
      <line class="cls-4" x1="140.45" y1="182.09" x2="140.45" y2="258.55"/>
      <g>
        <line class="cls-4" x1="49.11" y1="120.99" x2="49.11" y2="134.99"/>
        <line class="cls-6" x1="49.11" y1="158.94" x2="49.11" y2="290.71"/>
        <line class="cls-4" x1="49.11" y1="302.68" x2="49.11" y2="316.68"/>
      </g>
    </g>
  </g>
</svg>